<?xml version="1.0" encoding="utf-8"?>
<!-- Generator: Adobe Illustrator 22.0.1, SVG Export Plug-In . SVG Version: 6.00 Build 0)  -->
<svg version="1.1" id="Layer_1" xmlns="http://www.w3.org/2000/svg" xmlns:xlink="http://www.w3.org/1999/xlink" x="0px" y="0px"
	 viewBox="0 0 1366 768" style="enable-background:new 0 0 1366 768;" xml:space="preserve">
<style type="text/css">
	.st0{fill:#E63232;}
	.st1{fill:#AAAAAA;}
</style>
<g id="Layer_1_1_">
	<ellipse id="XMLID_1_" class="st0" cx="646.8" cy="161.5" rx="79.5" ry="67.9"/>
	<polygon class="st0" points="579,54 498.3,127.6 605.8,119 669.6,40.8 	"/>
	<polygon class="st0" points="694,144.5 619.9,189.4 566.3,121.4 640.3,76.7 	"/>
</g>
<g id="Layer_5">
	<path class="st0" d="M527,722c152.7-83,160-99,175-197.9c-26.1,8.3-36.6,9.2-84.7,30.4C654.8,597,627.2,631,527,722z"/>
</g>
<g id="Layer_2_1_">
	<path class="st0" d="M395.9,138.8"/>
	<path class="st0" d="M515.6,127.5c10.9-8.7-26.9,32.1-55.4,34.5c-2.5,0.2-13.1,0.9-13.5-0.8c-0.3-1.4,16-9.9,23.7-8.2
		C478,154.7,504.7,136.2,515.6,127.5z"/>
	<path class="st0" d="M683,409.3c-11.7,0.1,16.9-0.2-21,4.1c-323.1,0.7-149.5,226.5-647,262.9c50.7-3.7,234.9-85.1,247.3-106.7
		c0.5-0.9-0.4-1.9-1.6-1.6c-16.6,3.8-88.7,2.1-149.6-12.1c-1.5-0.4-1.2-2.3,0.4-2.3c90.2,0.3,180.5-65.9,225.4-140.6
		c32.6-54.1,82.1-127.6,91-140c23.5-32.7,78.1-58.1,105-53c92.5,17.5,196,61.1,387.2-81.2c1.3-1-15.2,30.7-16.1,32
		c-47,68.6-134.5,87.4-177.7,93.2C610.4,279.5,612.9,392.4,612,406c0,0.6-29.7-2.8-15.8-2.6L683,409.3z"/>
</g>
<g id="Layer_4">
	<path class="st0" d="M507.5,220.3C476,231,453.3,245.1,447,249.2c-1,0.7-2.3,0.5-3.3-0.2c-12-9.7-92.5-68.8-252.7-45.9
		c-2.9,0.4-4.4-3.2-1.7-4.3c53-22,198.9-66,318.6,17.7C509.6,217.5,509.3,219.7,507.5,220.3z"/>
	<path class="st1" d="M1244.7,356.6c51.8-135.2,159.4-110.8,77.4-300.7C1428.5,211.1,1317.1,256.5,1244.7,356.6z"/>
	<path class="st1" d="M366,561.2c128.1-104.7,166.6-114.3,280.4-126.5c265.8-28.3,355.5-26.4,637-193.5
		c-290.5,138.7-431.1,170.2-629.7,168C536,413,444.7,452.4,366,561.2z"/>
	<path class="st1" d="M374.2,607.2c53.9-134.6,471.5-177.1,471.5-177.1S457.1,441.9,374.2,607.2z"/>
	<path class="st1" d="M355.5,712.1C491.7,555.9,835.6,483.2,1093,429.4c119.2-24.9,191.6-129.6,256.2-281.4
		c-74.9,138.5-139.9,220.9-270.8,255.5C743.8,492.1,435.2,536.3,355.5,712.1z"/>
</g>
<g id="Layer_3">
	<path class="st0" d="M888.1,80.8c-9.5-3.3-23.8,13-23.8,18s35.5,23.1,54.4,45c18.1,21,18.6,50.2,24.9,49c20.4-4,23.8-10,26.1-14
		s-33.8-29.7-44.2-42C908.3,116.4,893.8,82.8,888.1,80.8z"/>
</g>
</svg>
